<?xml version="1.0" standalone="no"?>
<!DOCTYPE svg PUBLIC "-//W3C//DTD SVG 20010904//EN"
 "http://www.w3.org/TR/2001/REC-SVG-20010904/DTD/svg10.dtd">
<svg version="1.0" xmlns="http://www.w3.org/2000/svg"
 width="147.000000pt" height="147.000000pt" viewBox="0 0 147.000000 147.000000"
 preserveAspectRatio="xMidYMid meet">
<metadata>
Created by potrace 1.11, written by Peter Selinger 2001-2013
</metadata>
<g transform="translate(0.000000,147.000000) scale(0.100000,-0.100000)"
fill="#000000" stroke="none">
<path d="M350 1324 c-36 -7 -66 -18 -68 -24 -2 -5 -11 -10 -21 -10 -26 0 -130
-89 -167 -143 -83 -121 -104 -294 -52 -442 15 -43 69 -159 77 -165 3 -3 18
-23 32 -45 40 -60 149 -166 226 -217 138 -92 309 -165 367 -155 82 13 292 120
385 196 281 228 382 560 244 801 -50 87 -172 180 -268 204 -100 26 -238 8
-330 -42 l-50 -27 -65 32 c-104 53 -191 63 -310 37z m1003 -304 c3 -11 1 -18
-4 -14 -5 3 -9 12 -9 20 0 20 7 17 13 -6z"/>
</g>
</svg>
